<svg width="24" height="24" viewBox="0 0 24 24" fill="none" xmlns="http://www.w3.org/2000/svg">
<path d="M7.25169 18.9258L4.23267 21.4638C4.12334 21.5557 3.99004 21.6144 3.84846 21.6332C3.70687 21.6519 3.56287 21.6298 3.4334 21.5695C3.30393 21.5092 3.19437 21.4132 3.11761 21.2928C3.04084 21.1723 3.00006 21.0325 3.00006 20.8897V6C3.00006 5.80109 3.07908 5.61032 3.21973 5.46967C3.36038 5.32902 3.55115 5.25 3.75006 5.25H20.25C20.4489 5.25 20.6397 5.32902 20.7803 5.46967C20.921 5.61032 21 5.80109 21 6V17.9999C21 18.1989 20.921 18.3896 20.7803 18.5303C20.6397 18.6709 20.4489 18.7499 20.25 18.7499H7.7343C7.55774 18.7499 7.38684 18.8122 7.25169 18.9258Z" stroke="#94A1B2" stroke-width="1.5" stroke-linecap="round" stroke-linejoin="round"/>
</svg>
