<svg width="22" height="22" viewBox="0 0 22 22" fill="none" xmlns="http://www.w3.org/2000/svg">
<g opacity="0.5">
<path d="M2.0625 19.25H19.9375" stroke="#0F2542" stroke-linecap="round" stroke-linejoin="round"/>
<path d="M4.8125 19.25V3.4375C4.8125 3.25516 4.88493 3.0803 5.01386 2.95136C5.1428 2.82243 5.31766 2.75 5.5 2.75H16.5C16.6823 2.75 16.8572 2.82243 16.9861 2.95136C17.1151 3.0803 17.1875 3.25516 17.1875 3.4375V19.25" stroke="#0F2542" stroke-linecap="round" stroke-linejoin="round"/>
<path d="M13.4062 11.8594C13.8809 11.8594 14.2656 11.4746 14.2656 11C14.2656 10.5254 13.8809 10.1406 13.4062 10.1406C12.9316 10.1406 12.5469 10.5254 12.5469 11C12.5469 11.4746 12.9316 11.8594 13.4062 11.8594Z" fill="black"/>
</g>
</svg>
