<svg width="22" height="22" viewBox="0 0 22 22" fill="none" xmlns="http://www.w3.org/2000/svg">
<g opacity="0.5">
<path d="M6.87501 10.1028L5.97782 2.59873C5.96077 2.45355 5.97477 2.30641 6.0189 2.16705C6.06303 2.0277 6.13628 1.89932 6.2338 1.79043C6.33132 1.68153 6.45087 1.59461 6.58453 1.53544C6.71819 1.47626 6.8629 1.44617 7.00907 1.44717H14.9978C15.144 1.44617 15.2887 1.47626 15.4224 1.53544C15.556 1.59461 15.6756 1.68153 15.7731 1.79043C15.8706 1.89932 15.9439 2.0277 15.988 2.16705C16.0321 2.30641 16.0461 2.45355 16.0291 2.59873L15.125 10.1028H6.87501ZM7.31501 20.1025L8.10564 17.6962H13.8875L14.6781 20.1025C14.6955 20.1555 14.6997 20.2119 14.6904 20.2669C14.6811 20.3218 14.6585 20.3737 14.6247 20.418C14.5909 20.4624 14.5468 20.4978 14.4962 20.5213C14.4456 20.5447 14.3901 20.5556 14.3344 20.5528H7.64157C7.58732 20.5528 7.53384 20.5399 7.48552 20.5152C7.4372 20.4905 7.3954 20.4548 7.36355 20.4108C7.3317 20.3669 7.31069 20.3161 7.30226 20.2625C7.29382 20.2089 7.29819 20.1541 7.31501 20.1025V20.1025ZM13.8875 17.6859C15.8125 17.0844 17.2219 14.9531 17.2219 12.375H4.77814C4.77814 14.9394 6.19439 17.0706 8.11251 17.6722L13.8875 17.6859Z" stroke="#0F2542" stroke-miterlimit="10"/>
<path d="M16.83 10.1028H5.16657C4.53438 10.1028 4.02188 10.6145 4.02188 11.2458C4.02188 11.877 4.53438 12.3887 5.16657 12.3887H16.83C17.4622 12.3887 17.9747 11.877 17.9747 11.2458C17.9747 10.6145 17.4622 10.1028 16.83 10.1028Z" stroke="#0F2542" stroke-miterlimit="10"/>
</g>
</svg>
