<svg width="22" height="22" viewBox="0 0 22 22" fill="none" xmlns="http://www.w3.org/2000/svg">
<g opacity="0.5">
<path d="M14.2832 13.3457C13.3787 12.5417 12.2106 12.0976 11.0004 12.0976C9.79024 12.0976 8.62213 12.5417 7.71761 13.3457M16.9065 10.7224C15.3045 9.22446 13.1932 8.39113 11 8.39113C8.80677 8.39113 6.69548 9.22446 5.09351 10.7224M19.238 7.82504C16.9706 5.80239 14.0384 4.68457 11 4.68457C7.96158 4.68457 5.02936 5.80239 2.76202 7.82504" stroke="#0F2542" stroke-linecap="round" stroke-linejoin="round"/>
<path d="M11 17.875C10.7281 17.875 10.4622 17.7943 10.2361 17.6433C10.01 17.4922 9.83374 17.2774 9.72967 17.0262C9.6256 16.7749 9.59837 16.4985 9.65142 16.2317C9.70448 15.965 9.83543 15.72 10.0277 15.5277C10.22 15.3354 10.465 15.2045 10.7318 15.1514C10.9985 15.0984 11.2749 15.1256 11.5262 15.2297C11.7774 15.3337 11.9922 15.51 12.1433 15.7361C12.2944 15.9622 12.375 16.228 12.375 16.5C12.375 16.8647 12.2301 17.2144 11.9723 17.4723C11.7144 17.7301 11.3647 17.875 11 17.875Z" fill="#0F2542"/>
</g>
</svg>
